<?xml version="1.0" encoding="utf-8"?>
<!-- Generator: Adobe Illustrator 16.0.0, SVG Export Plug-In . SVG Version: 6.00 Build 0)  -->
<!DOCTYPE svg PUBLIC "-//W3C//DTD SVG 1.1//EN" "http://www.w3.org/Graphics/SVG/1.1/DTD/svg11.dtd">
<svg version="1.1" id="Layer_1" xmlns="http://www.w3.org/2000/svg" xmlns:xlink="http://www.w3.org/1999/xlink" x="0px" y="0px"
	 width="33.174px" height="26.173px" viewBox="0 0 33.174 26.173" enable-background="new 0 0 33.174 26.173" xml:space="preserve">
<g>
	<g>
		<g>
			<radialGradient id="SVGID_1_" cx="9.1616" cy="17.0264" r="8.9329" gradientUnits="userSpaceOnUse">
				<stop  offset="0.2956" style="stop-color:#999999"/>
				<stop  offset="0.3777" style="stop-color:#9D9D9D"/>
				<stop  offset="0.4527" style="stop-color:#A8A8A8"/>
				<stop  offset="0.525" style="stop-color:#BABABA"/>
				<stop  offset="0.5955" style="stop-color:#D4D4D4"/>
				<stop  offset="0.6643" style="stop-color:#F6F6F6"/>
				<stop  offset="0.6749" style="stop-color:#FCFCFC"/>
				<stop  offset="0.7685" style="stop-color:#F7F7F7"/>
				<stop  offset="0.8867" style="stop-color:#FFFFFF"/>
				<stop  offset="0.9056" style="stop-color:#F9F9F9"/>
				<stop  offset="0.9298" style="stop-color:#EAEAEA"/>
				<stop  offset="0.9569" style="stop-color:#CFCFCF"/>
				<stop  offset="0.9858" style="stop-color:#ABABAB"/>
				<stop  offset="1" style="stop-color:#969696"/>
			</radialGradient>
			<path fill="url(#SVGID_1_)" d="M9.162,8.094c-4.934,0-8.934,3.999-8.934,8.933c0,4.933,4,8.933,8.934,8.933
				c4.932,0,8.933-4,8.933-8.933C18.095,12.093,14.094,8.094,9.162,8.094z M9.162,21.881c-2.683,0-4.855-2.174-4.855-4.854
				c0-2.682,2.173-4.854,4.855-4.854c2.682,0,4.854,2.173,4.854,4.854C14.017,19.707,11.844,21.881,9.162,21.881z"/>
			<path fill="none" stroke="#B6B6B6" stroke-width="0.2425" stroke-miterlimit="10" d="M9.162,8.094
				c-4.934,0-8.934,3.999-8.934,8.933c0,4.933,4,8.933,8.934,8.933c4.932,0,8.933-4,8.933-8.933
				C18.095,12.093,14.094,8.094,9.162,8.094z M9.162,21.881c-2.683,0-4.855-2.174-4.855-4.854c0-2.682,2.173-4.854,4.855-4.854
				c2.682,0,4.854,2.173,4.854,4.854C14.017,19.707,11.844,21.881,9.162,21.881z"/>
		</g>
		<g>
			<path fill="#333333" d="M7.999,7.927c-0.133,0.015-0.241,0.136-0.241,0.27v4.032c0,0.134,0.106,0.22,0.237,0.192
				c0,0,0.679-0.145,1.167-0.145c0.486,0,1.165,0.145,1.165,0.145c0.131,0.028,0.237-0.059,0.237-0.192V8.196
				c0-0.134-0.108-0.255-0.241-0.27c0,0-0.686-0.076-1.161-0.076C8.685,7.851,7.999,7.927,7.999,7.927z"/>
			<path fill="none" stroke="#878787" stroke-width="0.2984" stroke-miterlimit="10" d="M7.999,7.927
				c-0.133,0.015-0.241,0.136-0.241,0.27v4.032c0,0.134,0.106,0.22,0.237,0.192c0,0,0.679-0.145,1.167-0.145
				c0.486,0,1.165,0.145,1.165,0.145c0.131,0.028,0.237-0.059,0.237-0.192V8.196c0-0.134-0.108-0.255-0.241-0.27
				c0,0-0.686-0.076-1.161-0.076C8.685,7.851,7.999,7.927,7.999,7.927z"/>
		</g>
		<g>
			<path fill="#333333" d="M10.323,26.097c0.133-0.015,0.241-0.136,0.241-0.27v-4.031c0-0.135-0.106-0.221-0.237-0.192
				c0,0-0.679,0.146-1.165,0.146c-0.488,0-1.167-0.145-1.167-0.145c-0.131-0.028-0.237,0.059-0.237,0.191v4.031
				c0,0.134,0.108,0.255,0.241,0.27c0,0,0.686,0.076,1.163,0.076C9.638,26.173,10.323,26.097,10.323,26.097z"/>
			<path fill="none" stroke="#878787" stroke-width="0.2984" stroke-miterlimit="10" d="M10.323,26.097
				c0.133-0.015,0.241-0.136,0.241-0.27v-4.031c0-0.135-0.106-0.221-0.237-0.192c0,0-0.679,0.146-1.165,0.146
				c-0.488,0-1.167-0.145-1.167-0.145c-0.131-0.028-0.237,0.059-0.237,0.191v4.031c0,0.134,0.108,0.255,0.241,0.27
				c0,0,0.686,0.076,1.163,0.076C9.638,26.173,10.323,26.097,10.323,26.097z"/>
		</g>
		<g>
			<path fill="#333333" d="M18.246,15.865c-0.015-0.133-0.136-0.241-0.269-0.241h-4.033c-0.133,0-0.22,0.107-0.191,0.237
				c0,0,0.145,0.679,0.145,1.165s-0.144,1.166-0.144,1.166c-0.028,0.131,0.059,0.237,0.191,0.237h4.032
				c0.133,0,0.254-0.108,0.269-0.241c0,0,0.076-0.686,0.076-1.162S18.246,15.865,18.246,15.865z"/>
			<path fill="none" stroke="#878787" stroke-width="0.2984" stroke-miterlimit="10" d="M18.246,15.865
				c-0.015-0.133-0.136-0.241-0.269-0.241h-4.033c-0.133,0-0.22,0.107-0.191,0.237c0,0,0.145,0.679,0.145,1.165
				s-0.144,1.166-0.144,1.166c-0.028,0.131,0.059,0.237,0.191,0.237h4.032c0.133,0,0.254-0.108,0.269-0.241
				c0,0,0.076-0.686,0.076-1.162S18.246,15.865,18.246,15.865z"/>
		</g>
		<g>
			<path fill="#333333" d="M0.076,18.188c0.016,0.133,0.137,0.241,0.27,0.241h4.032c0.133,0,0.22-0.106,0.191-0.237
				c0,0-0.145-0.68-0.145-1.166c0-0.487,0.144-1.165,0.144-1.165c0.028-0.13-0.059-0.237-0.191-0.237H0.346
				c-0.133,0-0.254,0.108-0.27,0.241c0,0-0.076,0.685-0.076,1.161S0.076,18.188,0.076,18.188z"/>
			<path fill="none" stroke="#878787" stroke-width="0.2984" stroke-miterlimit="10" d="M0.076,18.188
				c0.016,0.133,0.137,0.241,0.27,0.241h4.032c0.133,0,0.22-0.106,0.191-0.237c0,0-0.145-0.68-0.145-1.166
				c0-0.487,0.144-1.165,0.144-1.165c0.028-0.13-0.059-0.237-0.191-0.237H0.346c-0.133,0-0.254,0.108-0.27,0.241
				c0,0-0.076,0.685-0.076,1.161S0.076,18.188,0.076,18.188z"/>
		</g>
	</g>
	<path fill="#4D4640" d="M31.99,0H13.957c-0.652,0-1.184,0.436-1.184,0.975v7.031c0,0.539,0.531,0.975,1.184,0.975h1.973
		l-3.041,3.894l8.424-3.894H31.99c0.652,0,1.184-0.436,1.184-0.975V0.975C33.174,0.436,32.643,0,31.99,0z"/>
</g>
</svg>
