<?xml version="1.0" encoding="utf-8"?>
<!-- Generator: Adobe Illustrator 21.0.0, SVG Export Plug-In . SVG Version: 6.00 Build 0)  -->
<svg version="1.1" id="Layer_1" xmlns="http://www.w3.org/2000/svg" xmlns:xlink="http://www.w3.org/1999/xlink" x="0px" y="0px"
	 viewBox="0 0 39 30" style="enable-background:new 0 0 39 30;" xml:space="preserve">
<style type="text/css">
	.st0{fill:#FFFFFF;stroke:#4E4741;stroke-linejoin:round;stroke-miterlimit:10;}
	.st1{fill:#FFFFFF;stroke:#4E4741;stroke-width:1.1017;stroke-linejoin:round;stroke-miterlimit:10;}
	.st2{fill:#FFFFFF;stroke:#4E4741;stroke-width:1.1017;stroke-miterlimit:10;}
	.st3{fill:#2484C6;stroke:#4E4741;stroke-width:1.1017;stroke-linejoin:round;stroke-miterlimit:10;}
	.st4{fill:none;stroke:#2484C6;stroke-width:1.4689;stroke-linejoin:round;}
	.st5{fill:#2484C6;}
	.st6{fill:#C7C6C5;stroke:#4E4741;stroke-width:1.1017;stroke-linejoin:round;stroke-miterlimit:10;}
	.st7{fill:#C7C6C5;stroke:#4E4741;stroke-width:1.1017;stroke-miterlimit:10;}
	.st8{fill:#FFFFFF;stroke:#504943;stroke-miterlimit:10;}
	.st9{fill:#4E4741;}
	.st10{fill:none;stroke:#2484C6;stroke-width:1.4035;stroke-miterlimit:10;}
	.st11{fill:none;stroke:#4E4741;stroke-width:1.2745;stroke-miterlimit:10;}
	.st12{fill:#FFFFFF;}
	.st13{fill:#FFFFFF;stroke:#4E4741;stroke-width:1.4563;stroke-miterlimit:10;}
	.st14{fill:#FFFFFF;stroke:#4E4741;stroke-width:1.4563;stroke-linejoin:round;stroke-miterlimit:10;}
	.st15{fill:#FFFFFF;stroke:#4E4741;stroke-width:1.0922;stroke-linejoin:round;stroke-miterlimit:10;}
	.st16{fill:#2484C7;}
	.st17{fill:none;stroke:#4E4741;stroke-width:1.0922;stroke-miterlimit:10;}
	.st18{fill:none;stroke:#4E4841;stroke-width:1.4216;stroke-miterlimit:10;}
	.st19{fill:none;stroke:#989898;stroke-width:1.4216;stroke-miterlimit:10;}
	.st20{fill:none;stroke:#2484C7;stroke-width:1.4216;stroke-miterlimit:10;}
	.st21{fill:none;stroke:#4E4741;stroke-width:1.4216;stroke-miterlimit:10;}
	.st22{fill:#FFFFFF;stroke:#4E4741;stroke-width:1.4216;stroke-linejoin:round;stroke-miterlimit:10;}
	.st23{fill:#2484C7;stroke:#FFFFFF;stroke-width:1.0939;stroke-miterlimit:10;}
	.st24{fill:#2484C7;stroke:#FFFFFF;stroke-width:1.0398;stroke-miterlimit:10;}
	.st25{fill:#FFFFFF;stroke:#4E4741;stroke-width:0.7049;stroke-linejoin:round;stroke-miterlimit:10;}
	.st26{fill:#FFFFFF;stroke:#4E4741;stroke-width:0.4897;stroke-linejoin:round;stroke-miterlimit:10;}
</style>
<g>
	<g>
		<polygon class="st25" points="9.8,12 1.1,12 1.1,0.7 7.1,0.7 8.5,2 9.8,3.2 		"/>
		<line class="st25" x1="7.1" y1="0.7" x2="7.1" y2="3.4"/>
		<line class="st25" x1="9.8" y1="3.2" x2="6.9" y2="3.2"/>
		<line class="st25" x1="3.2" y1="5.5" x2="8" y2="5.5"/>
		<line class="st25" x1="3.2" y1="8.8" x2="8.1" y2="8.8"/>
		<line class="st25" x1="3.2" y1="7.1" x2="8" y2="7.1"/>
		<g>
			<polygon class="st25" points="12.6,13.7 4,13.7 4,2.3 10,2.3 11.4,3.6 12.6,4.9 			"/>
			<line class="st25" x1="10" y1="2.3" x2="10" y2="5.1"/>
			<line class="st25" x1="12.6" y1="4.9" x2="9.7" y2="4.9"/>
			<line class="st25" x1="5.9" y1="7.2" x2="10.8" y2="7.2"/>
			<line class="st25" x1="6" y1="10.5" x2="10.8" y2="10.5"/>
			<line class="st25" x1="6" y1="8.8" x2="10.8" y2="8.8"/>
		</g>
	</g>
	<g>
		<path class="st16" d="M23.1,14c-1.3,0-2.5-1-2.9-2.3C20,10.8,20.1,9.8,20.6,9L20,7.9l-0.6,1.2c0.5,0.8,0.6,1.8,0.2,2.8
			c-0.5,1.3-1.6,2.1-2.8,2.1c-0.3,0-0.6-0.1-0.9-0.2c-1.4-0.6-2.1-2.3-1.5-3.9c0.4-1.2,1.5-2,2.6-2.1l1.7-2.4L16.5,1l1.2-0.7L20,3.6
			l2.4-3.3L23.5,1l-2.2,4.4L23,7.8c1.2,0.1,2.2,1,2.6,2.3c0.2,0.8,0.2,1.6-0.2,2.3c-0.3,0.7-0.9,1.3-1.7,1.5
			C23.6,14,23.3,14,23.1,14z M22.8,10c0,0-0.1,0-0.1,0c-0.1,0-0.3,0.2-0.3,0.3c-0.1,0.2-0.1,0.5,0,0.8c0.1,0.4,0.5,0.8,0.8,0.8
			c0,0,0.1,0,0.1,0c0.1,0,0.3-0.2,0.3-0.3c0.1-0.2,0.1-0.5,0-0.8C23.4,10.3,23.1,10,22.8,10z M17.2,10c-0.3,0-0.6,0.3-0.8,0.7
			c-0.2,0.5-0.1,1,0.3,1.2c0,0,0.1,0,0.1,0c0.3,0,0.6-0.3,0.8-0.7c0.2-0.5,0.1-1-0.3-1.2C17.3,10,17.2,10,17.2,10z"/>
		<path class="st12" d="M22.5,0.7l0.1,0.1L23,1l0.1,0.1L23,1.3l-2.1,4.1l1.9,2.7c1.1,0,2.1,0.9,2.5,2.1c0.2,0.7,0.2,1.5-0.1,2.1
			c-0.3,0.6-0.8,1.1-1.5,1.3c-0.2,0.1-0.4,0.1-0.6,0.1c-1.1,0-2.2-0.9-2.5-2.1c-0.3-0.9-0.1-1.8,0.4-2.5l-1-1.9l-1,1.9
			c0.5,0.7,0.6,1.7,0.3,2.7c-0.4,1.1-1.4,1.9-2.5,1.9c-0.3,0-0.6-0.1-0.8-0.2c-1.3-0.5-1.9-2-1.3-3.5c0.4-1.1,1.4-1.9,2.5-1.9
			l1.9-2.7L17,1.3l-0.1-0.2L17.1,1l0.4-0.2l0.1-0.1l0.1,0.1L20,4.1l2.3-3.3L22.5,0.7 M23.1,12.2c0.1,0,0.1,0,0.2,0
			c0.2-0.1,0.4-0.3,0.5-0.5c0.1-0.3,0.1-0.6,0-1c-0.2-0.6-0.6-1-1.1-1c-0.1,0-0.1,0-0.2,0c-0.2,0.1-0.4,0.3-0.5,0.5
			c-0.1,0.3-0.1,0.6,0,1C22.2,11.8,22.6,12.2,23.1,12.2 M16.8,12.2c0.4,0,0.9-0.4,1.1-0.9c0.2-0.7,0-1.4-0.5-1.6c-0.1,0-0.2,0-0.3,0
			c-0.4,0-0.9,0.4-1.1,0.9c-0.2,0.7,0,1.4,0.5,1.6C16.7,12.2,16.8,12.2,16.8,12.2 M22.3-0.2l-0.4,0.5l-0.1,0.1L20,3l-1.8-2.5
			l-0.1-0.1l-0.4-0.5l-0.5,0.3l-0.1,0.1l-0.4,0.2l-0.1,0.1l-0.5,0.3l0.3,0.5l0.1,0.2l1.9,3.8l-1.5,2.1c-1.2,0.2-2.3,1.1-2.7,2.3
			c-0.6,1.8,0.1,3.7,1.7,4.3c0.3,0.1,0.7,0.2,1.1,0.2c1.4,0,2.6-0.9,3.1-2.3c0,0,0,0,0-0.1c0.5,1.4,1.7,2.4,3.1,2.4
			c0.3,0,0.5,0,0.8-0.1c0.8-0.2,1.5-0.8,1.9-1.6c0.4-0.8,0.4-1.7,0.2-2.6c-0.4-1.4-1.5-2.3-2.7-2.5l-1.5-2.1l1.9-3.8l0.1-0.2L24,0.9
			l-0.5-0.3l-0.1-0.1L23,0.2l-0.1-0.1L22.3-0.2L22.3-0.2z M19.8,9.1L20,8.6L20.2,9C20.1,9.2,20,9.4,20,9.5
			C19.9,9.4,19.9,9.2,19.8,9.1L19.8,9.1z M23.1,11.5c-0.1,0-0.4-0.2-0.5-0.5c-0.1-0.2-0.1-0.4,0-0.6c0-0.1,0.1-0.1,0.1-0.1
			c0,0,0,0,0,0c0.1,0,0.4,0.2,0.5,0.5c0.1,0.2,0.1,0.4,0,0.6C23.2,11.4,23.2,11.5,23.1,11.5L23.1,11.5L23.1,11.5z M16.8,11.5
			C16.8,11.5,16.8,11.5,16.8,11.5c-0.1,0-0.2-0.4-0.1-0.7c0.1-0.3,0.3-0.5,0.4-0.5c0.1,0,0.2,0.4,0.1,0.7
			C17.2,11.4,17,11.5,16.8,11.5L16.8,11.5z"/>
	</g>
	<g>
		<g>
			<rect x="3.4" y="19" class="st16" width="8" height="9.3"/>
		</g>
		<g>
			<rect x="2.1" y="16.6" class="st16" width="10.5" height="1.6"/>
		</g>
		<g>
			<rect x="5.8" y="15.4" class="st16" width="3.1" height="1.2"/>
		</g>
	</g>
	<polyline class="st9" points="38.3,13.2 35.2,17.7 32.1,13.2 	"/>
	<g>
		<g>
			<path class="st9" d="M22.6,18h-5.7c-1,0-1.8,0.8-1.8,1.8v6.8c0,1,0.8,1.8,1.8,1.8h5.7c1,0,1.8-0.8,1.8-1.8v-6.8
				C24.4,18.8,23.6,18,22.6,18z"/>
			<g>
				<path class="st5" d="M22.4,18c-0.7-0.3-0.7-1-1.7-1c-0.2,0-0.8,0.4-1.1,0.4c-0.2,0-0.4-0.4-0.6-0.4c-1,0-1.4,0.7-2,1H22.4z"/>
				<path class="st5" d="M19.8,15.4c-0.6,0-1.2,0.5-1.2,1.2c0,0.6,0.5,1.2,1.2,1.2c0.6,0,1.2-0.5,1.2-1.2
					C20.9,15.9,20.4,15.4,19.8,15.4z M19.8,17.2c-0.3,0-0.6-0.3-0.6-0.6c0-0.3,0.3-0.6,0.6-0.6c0.3,0,0.6,0.3,0.6,0.6
					C20.4,16.9,20.1,17.2,19.8,17.2z"/>
			</g>
		</g>
		<g>
			<polygon class="st26" points="25.5,27.6 19.5,27.6 19.5,19.7 23.6,19.7 24.6,20.6 25.5,21.5 			"/>
			<line class="st26" x1="23.6" y1="19.7" x2="23.6" y2="21.6"/>
			<line class="st26" x1="25.5" y1="21.5" x2="23.4" y2="21.5"/>
			<line class="st26" x1="20.8" y1="23" x2="24.2" y2="23"/>
			<line class="st26" x1="20.8" y1="25.4" x2="24.2" y2="25.4"/>
			<line class="st26" x1="20.8" y1="24.2" x2="24.2" y2="24.2"/>
		</g>
	</g>
</g>
</svg>
