<?xml version="1.0" encoding="utf-8"?>
<!-- Generator: Adobe Illustrator 21.0.0, SVG Export Plug-In . SVG Version: 6.00 Build 0)  -->
<svg version="1.1" id="Layer_1" xmlns="http://www.w3.org/2000/svg" xmlns:xlink="http://www.w3.org/1999/xlink" x="0px" y="0px"
	 viewBox="0 0 39 30" style="enable-background:new 0 0 39 30;" xml:space="preserve">
<style type="text/css">
	.st0{fill:#FFFFFF;stroke:#4E4741;stroke-linejoin:round;stroke-miterlimit:10;}
	.st1{fill:#FFFFFF;stroke:#4E4741;stroke-width:1.1017;stroke-linejoin:round;stroke-miterlimit:10;}
	.st2{fill:#FFFFFF;stroke:#4E4741;stroke-width:1.1017;stroke-miterlimit:10;}
	.st3{fill:#2484C6;stroke:#4E4741;stroke-width:1.1017;stroke-linejoin:round;stroke-miterlimit:10;}
	.st4{fill:none;stroke:#2484C6;stroke-width:1.4689;stroke-linejoin:round;}
	.st5{fill:#2484C6;}
	.st6{fill:#C7C6C5;stroke:#4E4741;stroke-width:1.1017;stroke-linejoin:round;stroke-miterlimit:10;}
	.st7{fill:#C7C6C5;stroke:#4E4741;stroke-width:1.1017;stroke-miterlimit:10;}
	.st8{fill:#FFFFFF;stroke:#504943;stroke-miterlimit:10;}
	.st9{fill:#4E4741;}
	.st10{fill:none;stroke:#2484C6;stroke-width:1.4035;stroke-miterlimit:10;}
	.st11{fill:none;stroke:#4E4741;stroke-width:1.2745;stroke-miterlimit:10;}
	.st12{fill:#FFFFFF;}
	.st13{fill:#FFFFFF;stroke:#4E4741;stroke-width:1.4563;stroke-miterlimit:10;}
	.st14{fill:#FFFFFF;stroke:#4E4741;stroke-width:1.4563;stroke-linejoin:round;stroke-miterlimit:10;}
	.st15{fill:#FFFFFF;stroke:#4E4741;stroke-width:1.0922;stroke-linejoin:round;stroke-miterlimit:10;}
	.st16{fill:#2484C7;}
	.st17{fill:none;stroke:#4E4741;stroke-width:1.0922;stroke-miterlimit:10;}
	.st18{fill:none;stroke:#4E4841;stroke-width:1.4216;stroke-miterlimit:10;}
	.st19{fill:none;stroke:#989898;stroke-width:1.4216;stroke-miterlimit:10;}
	.st20{fill:none;stroke:#2484C7;stroke-width:1.4216;stroke-miterlimit:10;}
	.st21{fill:none;stroke:#4E4741;stroke-width:1.4216;stroke-miterlimit:10;}
	.st22{fill:#FFFFFF;stroke:#4E4741;stroke-width:1.4216;stroke-linejoin:round;stroke-miterlimit:10;}
	.st23{fill:#2484C7;stroke:#FFFFFF;stroke-width:1.0939;stroke-miterlimit:10;}
	.st24{fill:#2484C7;stroke:#FFFFFF;stroke-width:1.0398;stroke-miterlimit:10;}
	.st25{fill:#FFFFFF;stroke:#4E4741;stroke-width:0.7049;stroke-linejoin:round;stroke-miterlimit:10;}
	.st26{fill:#FFFFFF;stroke:#4E4741;stroke-width:0.4897;stroke-linejoin:round;stroke-miterlimit:10;}
</style>
<g>
	<polygon class="st11" points="20.1,0.6 7.1,0.6 7.1,27.5 26.9,27.5 26.9,7.4 	"/>
	<polyline class="st11" points="26.9,7.4 20.1,7.4 20.1,7.3 20.1,0.6 	"/>
	<rect x="9.5" y="9.5" class="st9" width="1.8" height="1.8"/>
	<rect x="13" y="9.5" class="st9" width="11" height="1.8"/>
	<rect x="9.5" y="14.9" class="st9" width="1.8" height="1.8"/>
	<rect x="13" y="14.9" class="st9" width="11" height="1.8"/>
	<g>
		<path class="st5" d="M25.8,23c-1.2,0.8-2.6,1.2-4,1.2c-4.1,0-7.4-3.3-7.4-7.4s3.3-7.4,7.4-7.4c4.1,0,7.4,3.3,7.4,7.4
			c0,1.3-0.3,2.5-0.9,3.6l6.4,6.4l-2.5,2.5L25.8,23z M21.8,13c-2.1,0-3.8,1.7-3.8,3.8c0,2.1,1.7,3.8,3.8,3.8c2.1,0,3.8-1.7,3.8-3.8
			C25.6,14.7,23.9,13,21.8,13z"/>
		<path class="st12" d="M21.8,9.9c3.8,0,6.9,3.1,6.9,6.9c0,1.4-0.4,2.6-1.1,3.7l6.3,6.3l-1.8,1.8l-6.2-6.2c-1.1,0.8-2.5,1.3-4.1,1.3
			c-3.8,0-6.9-3.1-6.9-6.9C14.9,13,18,9.9,21.8,9.9 M21.8,21.2c2.4,0,4.3-1.9,4.3-4.3c0-2.4-1.9-4.3-4.3-4.3c-2.4,0-4.3,1.9-4.3,4.3
			C17.4,19.2,19.4,21.2,21.8,21.2 M21.8,8.9c-4.3,0-7.9,3.5-7.9,7.9c0,4.3,3.5,7.9,7.9,7.9c1.4,0,2.7-0.4,3.9-1.1l5.7,5.7l0.7,0.7
			l0.7-0.7l1.8-1.8l0.7-0.7l-0.7-0.7l-5.8-5.8c0.5-1.1,0.8-2.3,0.8-3.5C29.6,12.5,26.1,8.9,21.8,8.9L21.8,8.9z M21.8,20.2
			c-1.8,0-3.3-1.5-3.3-3.3c0-1.8,1.5-3.3,3.3-3.3c1.8,0,3.3,1.5,3.3,3.3C25.1,18.7,23.6,20.2,21.8,20.2L21.8,20.2z"/>
	</g>
</g>
</svg>
