<?xml version="1.0" encoding="utf-8"?>
<!-- Generator: Adobe Illustrator 21.0.0, SVG Export Plug-In . SVG Version: 6.00 Build 0)  -->
<svg version="1.1" id="Layer_1" xmlns="http://www.w3.org/2000/svg" xmlns:xlink="http://www.w3.org/1999/xlink" x="0px" y="0px"
	 viewBox="0 0 39 30" style="enable-background:new 0 0 39 30;" xml:space="preserve">
<style type="text/css">
	.st0{fill:#FFFFFF;stroke:#4E4741;stroke-linejoin:round;stroke-miterlimit:10;}
	.st1{fill:#4E4741;}
	.st2{fill:#2484C6;}
	.st3{fill:#FFFFFF;stroke:#4E4741;stroke-width:1.1017;stroke-linejoin:round;stroke-miterlimit:10;}
	.st4{fill:#FFFFFF;stroke:#4E4741;stroke-width:1.1017;stroke-miterlimit:10;}
	.st5{fill:#2484C6;stroke:#4E4741;stroke-width:1.1017;stroke-linejoin:round;stroke-miterlimit:10;}
	.st6{fill:none;stroke:#2484C6;stroke-width:1.4689;stroke-linejoin:round;}
	.st7{fill:#C7C6C5;stroke:#4E4741;stroke-width:1.1017;stroke-linejoin:round;stroke-miterlimit:10;}
	.st8{fill:#C7C6C5;stroke:#4E4741;stroke-width:1.1017;stroke-miterlimit:10;}
	.st9{fill:#FFFFFF;stroke:#504943;stroke-miterlimit:10;}
	.st10{fill:none;stroke:#2484C6;stroke-width:1.4035;stroke-miterlimit:10;}
	.st11{fill:none;stroke:#4E4741;stroke-width:1.2745;stroke-miterlimit:10;}
	.st12{fill:#FFFFFF;}
	.st13{fill:#FFFFFF;stroke:#4E4741;stroke-width:1.4563;stroke-miterlimit:10;}
	.st14{fill:#FFFFFF;stroke:#4E4741;stroke-width:1.4563;stroke-linejoin:round;stroke-miterlimit:10;}
	.st15{fill:#FFFFFF;stroke:#4E4741;stroke-width:1.0922;stroke-linejoin:round;stroke-miterlimit:10;}
	.st16{fill:#2484C7;}
	.st17{fill:none;stroke:#4E4741;stroke-width:1.0922;stroke-miterlimit:10;}
	.st18{fill:none;stroke:#4E4841;stroke-width:1.4216;stroke-miterlimit:10;}
	.st19{fill:none;stroke:#989898;stroke-width:1.4216;stroke-miterlimit:10;}
	.st20{fill:none;stroke:#2484C7;stroke-width:1.4216;stroke-miterlimit:10;}
	.st21{fill:none;stroke:#4E4741;stroke-width:1.4216;stroke-miterlimit:10;}
	.st22{fill:#FFFFFF;stroke:#4E4741;stroke-width:1.4216;stroke-linejoin:round;stroke-miterlimit:10;}
	.st23{fill:#2484C7;stroke:#FFFFFF;stroke-width:1.0939;stroke-miterlimit:10;}
	.st24{fill:#2484C7;stroke:#FFFFFF;stroke-width:1.0398;stroke-miterlimit:10;}
	.st25{fill:#FFFFFF;stroke:#2484C6;stroke-width:0.2906;stroke-miterlimit:10;}
	.st26{fill:#2484C6;stroke:#2484C6;stroke-width:0.2906;stroke-miterlimit:10;}
	.st27{fill:none;stroke:#2484C6;stroke-width:0.2906;stroke-miterlimit:10;}
	.st28{fill:#FFFFFF;stroke:#4E4741;stroke-width:0.7049;stroke-linejoin:round;stroke-miterlimit:10;}
	.st29{fill:#FFFFFF;stroke:#4E4741;stroke-width:0.4897;stroke-linejoin:round;stroke-miterlimit:10;}
	.st30{fill:#4E4841;}
	.st31{fill:#2384C6;}
	.st32{enable-background:new    ;}
</style>
<g>
	<polyline class="st30" points="38.8,12.9 35.6,17.6 32.3,12.9 	"/>
	<g>
		<path class="st31" d="M4.7,18.2H2.2c-1.1,0-2-0.9-2-2v-2.5c0-1.1,0.9-2,2-2h2.5c1.1,0,2,0.9,2,2v2.5C6.7,17.3,5.8,18.2,4.7,18.2z"
			/>
		<path class="st31" d="M16,18.2h-2.5c-1.1,0-2-0.9-2-2v-2.5c0-1.1,0.9-2,2-2H16c1.1,0,2,0.9,2,2v2.5C18,17.3,17.1,18.2,16,18.2z"/>
		<path class="st31" d="M27.4,18.2h-2.5c-1.1,0-2-0.9-2-2v-2.5c0-1.1,0.9-2,2-2h2.5c1.1,0,2,0.9,2,2v2.5
			C29.4,17.3,28.5,18.2,27.4,18.2z"/>
	</g>
</g>
</svg>
