<?xml version="1.0" encoding="utf-8"?>
<!-- Generator: Adobe Illustrator 21.0.0, SVG Export Plug-In . SVG Version: 6.00 Build 0)  -->
<svg version="1.1" id="Layer_1" xmlns="http://www.w3.org/2000/svg" xmlns:xlink="http://www.w3.org/1999/xlink" x="0px" y="0px"
	 viewBox="0 0 39 30" style="enable-background:new 0 0 39 30;" xml:space="preserve">
<style type="text/css">
	.st0{fill:#FFFFFF;stroke:#4E4741;stroke-linejoin:round;stroke-miterlimit:10;}
	.st1{fill:#FFFFFF;stroke:#4E4741;stroke-width:1.1017;stroke-linejoin:round;stroke-miterlimit:10;}
	.st2{fill:#FFFFFF;stroke:#4E4741;stroke-width:1.1017;stroke-miterlimit:10;}
	.st3{fill:#2484C6;stroke:#4E4741;stroke-width:1.1017;stroke-linejoin:round;stroke-miterlimit:10;}
	.st4{fill:none;stroke:#2484C6;stroke-width:1.4689;stroke-linejoin:round;}
	.st5{fill:#2484C6;}
	.st6{fill:#C7C6C5;stroke:#4E4741;stroke-width:1.1017;stroke-linejoin:round;stroke-miterlimit:10;}
	.st7{fill:#C7C6C5;stroke:#4E4741;stroke-width:1.1017;stroke-miterlimit:10;}
	.st8{fill:#FFFFFF;stroke:#504943;stroke-miterlimit:10;}
	.st9{fill:#4E4741;}
	.st10{fill:none;stroke:#2484C6;stroke-width:1.4035;stroke-miterlimit:10;}
	.st11{fill:none;stroke:#4E4741;stroke-width:1.2745;stroke-miterlimit:10;}
	.st12{fill:#FFFFFF;}
	.st13{fill:#FFFFFF;stroke:#4E4741;stroke-width:1.4563;stroke-miterlimit:10;}
	.st14{fill:#FFFFFF;stroke:#4E4741;stroke-width:1.4563;stroke-linejoin:round;stroke-miterlimit:10;}
	.st15{fill:#FFFFFF;stroke:#4E4741;stroke-width:1.0922;stroke-linejoin:round;stroke-miterlimit:10;}
	.st16{fill:#2484C7;}
	.st17{fill:none;stroke:#4E4741;stroke-width:1.0922;stroke-miterlimit:10;}
	.st18{fill:none;stroke:#4E4841;stroke-width:1.4216;stroke-miterlimit:10;}
	.st19{fill:none;stroke:#989898;stroke-width:1.4216;stroke-miterlimit:10;}
	.st20{fill:none;stroke:#2484C7;stroke-width:1.4216;stroke-miterlimit:10;}
	.st21{fill:none;stroke:#4E4741;stroke-width:1.4216;stroke-miterlimit:10;}
	.st22{fill:#FFFFFF;stroke:#4E4741;stroke-width:1.4216;stroke-linejoin:round;stroke-miterlimit:10;}
	.st23{fill:#2484C7;stroke:#FFFFFF;stroke-width:1.0939;stroke-miterlimit:10;}
	.st24{fill:#2484C7;stroke:#FFFFFF;stroke-width:1.0398;stroke-miterlimit:10;}
	.st25{fill:#FFFFFF;stroke:#4E4741;stroke-width:0.7049;stroke-linejoin:round;stroke-miterlimit:10;}
	.st26{fill:#FFFFFF;stroke:#4E4741;stroke-width:0.4897;stroke-linejoin:round;stroke-miterlimit:10;}
</style>
<g>
	<polygon class="st18" points="25.8,0 11.3,0 11.3,30 33.4,30 33.4,7.6 	"/>
	<polyline class="st18" points="33.4,7.6 25.8,7.6 25.8,7.4 25.8,0 	"/>
	<g>
		<rect x="3.6" y="3.8" class="st16" width="18.8" height="7.8"/>
		<g>
			<path class="st12" d="M7.8,8.3v1.4H6.9V5.7h1.4c1,0,1.5,0.4,1.5,1.3c0,0.4-0.1,0.7-0.4,1S8.7,8.3,8.2,8.3H7.8z M7.8,6.4v1.3h0.4
				c0.5,0,0.7-0.2,0.7-0.6c0-0.4-0.2-0.6-0.7-0.6H7.8z"/>
			<path class="st12" d="M11.3,9.7V5.7h1.4c1.4,0,2.2,0.7,2.2,2c0,0.6-0.2,1.1-0.6,1.5c-0.4,0.4-0.9,0.6-1.6,0.6H11.3z M12.2,6.4V9
				h0.5c0.4,0,0.7-0.1,0.9-0.4c0.2-0.2,0.3-0.6,0.3-1c0-0.4-0.1-0.7-0.3-0.9c-0.2-0.2-0.5-0.3-0.9-0.3H12.2z"/>
			<path class="st12" d="M19.1,6.4h-1.4v1h1.3v0.7h-1.3v1.6h-0.9V5.7h2.3V6.4z"/>
		</g>
	</g>
</g>
</svg>
