<svg width="1179" height="136" viewBox="0 0 1179 136" fill="none" xmlns="http://www.w3.org/2000/svg">
<path d="M2.83643 107.024C2.16443 107.024 1.63643 106.832 1.25243 106.448C0.868425 106.064 0.676425 105.536 0.676425 104.864V8.38441C0.676425 7.71241 0.868425 7.18441 1.25243 6.80041C1.63643 6.41641 2.16443 6.22441 2.83643 6.22441H25.5884C26.2604 6.22441 26.7884 6.41641 27.1724 6.80041C27.5564 7.18441 27.7484 7.71241 27.7484 8.38441V83.1204C27.7484 83.6004 27.9884 83.8404 28.4684 83.8404H72.9644C73.6364 83.8404 74.1644 84.0324 74.5484 84.4164C74.9324 84.8004 75.1244 85.3284 75.1244 86.0004V104.864C75.1244 105.536 74.9324 106.064 74.5484 106.448C74.1644 106.832 73.6364 107.024 72.9644 107.024H2.83643ZM154.356 64.2564C154.644 66.3684 154.788 68.5284 154.788 70.7364C154.788 72.2724 154.74 73.4724 154.644 74.3364C154.644 75.6804 153.924 76.3524 152.484 76.3524H109.284C108.9 76.3524 108.708 76.5444 108.708 76.9284C108.708 77.7924 109.092 78.8004 109.86 79.9524C110.82 81.5844 112.5 82.9764 114.9 84.1284C117.396 85.1844 120.18 85.7124 123.252 85.7124C125.844 85.7124 128.244 85.3284 130.452 84.5604C132.66 83.7924 134.532 82.6884 136.068 81.2484C136.548 80.8644 137.028 80.6724 137.508 80.6724C138.18 80.6724 138.708 80.9604 139.092 81.5364L150.036 95.5044C150.42 95.9844 150.612 96.5124 150.612 97.0884C150.612 97.6644 150.372 98.1444 149.892 98.5284C146.532 101.792 142.356 104.24 137.364 105.872C132.372 107.408 126.996 108.176 121.236 108.176C112.308 108.176 104.676 106.304 98.3399 102.56C92.0039 98.8164 87.3959 93.4884 84.5159 86.5764C82.4039 81.5844 81.3479 76.2084 81.3479 70.4484C81.3479 64.4004 82.2119 59.0244 83.9399 54.3204C86.5319 47.0244 90.8039 41.3124 96.7559 37.1844C102.708 33.0564 109.716 30.9924 117.78 30.9924C123.924 30.9924 129.588 32.4324 134.772 35.3124C140.052 38.1924 144.372 42.1764 147.732 47.2644C151.188 52.2564 153.396 57.9204 154.356 64.2564ZM117.636 54.1764C113.7 54.1764 110.964 56.0964 109.428 59.9364L108.852 61.5204C108.756 61.8084 108.804 62.0484 108.996 62.2404C109.188 62.3364 109.38 62.3844 109.572 62.3844H125.988C126.372 62.3844 126.564 62.1924 126.564 61.8084C126.564 61.4244 126.42 60.8004 126.132 59.9364C125.652 58.1124 124.644 56.7204 123.108 55.7604C121.668 54.7044 119.844 54.1764 117.636 54.1764ZM194.802 108.176C183.954 108.176 175.362 106.064 169.026 101.84C162.786 97.6164 159.666 92.0004 159.666 84.9924V83.6964C159.666 83.0244 159.858 82.4964 160.242 82.1124C160.626 81.7284 161.154 81.5364 161.826 81.5364H183.426C184.866 81.5364 185.586 82.0644 185.586 83.1204C185.586 84.6564 186.402 85.9044 188.034 86.8644C189.762 87.8244 191.97 88.3044 194.658 88.3044C196.77 88.3044 198.45 88.0164 199.698 87.4404C201.042 86.7684 201.714 85.8564 201.714 84.7044C201.714 83.3604 200.946 82.4484 199.41 81.9684C197.874 81.3924 195.138 80.7684 191.202 80.0964C187.554 79.6164 184.29 79.0404 181.41 78.3684C178.53 77.6964 175.746 76.6884 173.058 75.3444C164.802 71.3124 160.674 64.9764 160.674 56.3364C160.674 48.5604 163.698 42.4164 169.746 37.9044C175.794 33.2964 183.762 30.9924 193.65 30.9924C200.37 30.9924 206.226 32.0964 211.218 34.3044C216.306 36.4164 220.242 39.4404 223.026 43.3764C225.81 47.3124 227.202 51.8724 227.202 57.0564C227.202 58.1124 226.482 58.6404 225.042 58.6404H204.162C202.722 58.6404 202.002 58.1124 202.002 57.0564C202.002 55.4244 201.282 54.1764 199.842 53.3124C198.402 52.3524 196.482 51.8724 194.082 51.8724C191.874 51.8724 190.05 52.2564 188.61 53.0244C187.266 53.6964 186.594 54.6564 186.594 55.9044C186.594 57.4404 187.506 58.4964 189.33 59.0724C191.154 59.6484 194.082 60.2244 198.114 60.8004C198.594 60.8964 200.418 61.1844 203.586 61.6644C206.85 62.1444 209.97 62.9124 212.946 63.9684C218.13 65.7924 222.066 68.3364 224.754 71.6004C227.538 74.7684 228.93 78.9444 228.93 84.1284C228.93 92.0004 225.858 98.0004 219.714 102.128C213.57 106.16 205.266 108.176 194.802 108.176ZM237.941 107.024C237.269 107.024 236.741 106.832 236.357 106.448C235.973 106.064 235.781 105.536 235.781 104.864V8.38441C235.781 7.71241 235.973 7.18441 236.357 6.80041C236.741 6.41641 237.269 6.22441 237.941 6.22441H260.693C261.365 6.22441 261.893 6.41641 262.277 6.80041C262.661 7.18441 262.853 7.71241 262.853 8.38441V104.864C262.853 105.536 262.661 106.064 262.277 106.448C261.893 106.832 261.365 107.024 260.693 107.024H237.941ZM286.024 27.1044C282.088 27.1044 278.824 25.8564 276.232 23.3604C273.736 20.7684 272.488 17.5044 272.488 13.5684C272.488 9.53641 273.736 6.27241 276.232 3.77641C278.824 1.28041 282.088 0.0324097 286.024 0.0324097C289.96 0.0324097 293.176 1.28041 295.672 3.77641C298.264 6.27241 299.56 9.53641 299.56 13.5684C299.56 17.4084 298.264 20.6244 295.672 23.2164C293.176 25.8084 289.96 27.1044 286.024 27.1044ZM274.504 107.024C273.832 107.024 273.304 106.832 272.92 106.448C272.536 106.064 272.344 105.536 272.344 104.864V34.3044C272.344 33.6324 272.536 33.1044 272.92 32.7204C273.304 32.3364 273.832 32.1444 274.504 32.1444H297.256C297.928 32.1444 298.456 32.3364 298.84 32.7204C299.224 33.1044 299.416 33.6324 299.416 34.3044V104.864C299.416 105.536 299.224 106.064 298.84 106.448C298.456 106.832 297.928 107.024 297.256 107.024H274.504ZM380.762 64.2564C381.05 66.3684 381.194 68.5284 381.194 70.7364C381.194 72.2724 381.146 73.4724 381.05 74.3364C381.05 75.6804 380.33 76.3524 378.89 76.3524H335.69C335.306 76.3524 335.114 76.5444 335.114 76.9284C335.114 77.7924 335.498 78.8004 336.266 79.9524C337.226 81.5844 338.906 82.9764 341.306 84.1284C343.802 85.1844 346.586 85.7124 349.658 85.7124C352.25 85.7124 354.65 85.3284 356.858 84.5604C359.066 83.7924 360.938 82.6884 362.474 81.2484C362.954 80.8644 363.434 80.6724 363.914 80.6724C364.586 80.6724 365.114 80.9604 365.498 81.5364L376.442 95.5044C376.826 95.9844 377.018 96.5124 377.018 97.0884C377.018 97.6644 376.778 98.1444 376.298 98.5284C372.938 101.792 368.762 104.24 363.77 105.872C358.778 107.408 353.402 108.176 347.642 108.176C338.714 108.176 331.082 106.304 324.746 102.56C318.41 98.8164 313.802 93.4884 310.922 86.5764C308.81 81.5844 307.754 76.2084 307.754 70.4484C307.754 64.4004 308.618 59.0244 310.346 54.3204C312.938 47.0244 317.21 41.3124 323.162 37.1844C329.114 33.0564 336.122 30.9924 344.186 30.9924C350.33 30.9924 355.994 32.4324 361.178 35.3124C366.458 38.1924 370.778 42.1764 374.138 47.2644C377.594 52.2564 379.802 57.9204 380.762 64.2564ZM344.042 54.1764C340.106 54.1764 337.37 56.0964 335.834 59.9364L335.258 61.5204C335.162 61.8084 335.21 62.0484 335.402 62.2404C335.594 62.3364 335.786 62.3844 335.978 62.3844H352.394C352.778 62.3844 352.97 62.1924 352.97 61.8084C352.97 61.4244 352.826 60.8004 352.538 59.9364C352.058 58.1124 351.05 56.7204 349.514 55.7604C348.074 54.7044 346.25 54.1764 344.042 54.1764ZM461.971 6.22441C468.787 6.22441 474.787 7.61641 479.971 10.4004C485.155 13.0884 489.139 16.9764 491.923 22.0644C494.803 27.0564 496.243 32.8164 496.243 39.3444C496.243 45.7764 494.755 51.4404 491.779 56.3364C488.803 61.2324 484.627 65.0244 479.251 67.7124C473.875 70.4004 467.683 71.7444 460.675 71.7444H445.411C444.931 71.7444 444.691 71.9844 444.691 72.4644V104.864C444.691 105.536 444.499 106.064 444.115 106.448C443.731 106.832 443.203 107.024 442.531 107.024H419.779C419.107 107.024 418.579 106.832 418.195 106.448C417.811 106.064 417.619 105.536 417.619 104.864V8.38441C417.619 7.71241 417.811 7.18441 418.195 6.80041C418.579 6.41641 419.107 6.22441 419.779 6.22441H461.971ZM457.507 50.1444C461.059 50.1444 463.891 49.2324 466.003 47.4084C468.211 45.4884 469.315 42.9924 469.315 39.9204C469.315 36.7524 468.211 34.2084 466.003 32.2884C463.891 30.3684 461.059 29.4084 457.507 29.4084H445.411C444.931 29.4084 444.691 29.6484 444.691 30.1284V49.4244C444.691 49.9044 444.931 50.1444 445.411 50.1444H457.507ZM533.611 108.176C524.491 108.176 516.763 105.728 510.427 100.832C504.187 95.9364 500.059 89.3124 498.043 80.9604C497.083 77.5044 496.603 73.6644 496.603 69.4404C496.603 64.7364 497.179 60.4644 498.331 56.6244C500.635 48.6564 504.859 42.4164 511.003 37.9044C517.243 33.2964 524.827 30.9924 533.755 30.9924C542.683 30.9924 550.171 33.2964 556.219 37.9044C562.363 42.4164 566.587 48.5604 568.891 56.3364C570.043 60.3684 570.619 64.6404 570.619 69.1524C570.619 72.8004 570.235 76.4484 569.467 80.0964C567.451 88.7364 563.275 95.6004 556.939 100.688C550.699 105.68 542.923 108.176 533.611 108.176ZM533.611 84.9924C536.107 84.9924 538.123 84.1764 539.659 82.5444C541.195 80.8164 542.251 78.5604 542.827 75.7764C543.211 73.9524 543.403 71.7924 543.403 69.2964C543.403 67.0884 543.163 64.8804 542.683 62.6724C541.243 57.0084 538.219 54.1764 533.611 54.1764C528.811 54.1764 525.787 57.0084 524.539 62.6724C524.059 64.3044 523.819 66.5124 523.819 69.2964C523.819 71.7924 524.011 73.9524 524.395 75.7764C525.835 81.9204 528.907 84.9924 533.611 84.9924ZM614.34 108.176C606.18 108.176 599.076 106.208 593.028 102.272C586.98 98.2404 582.564 92.6724 579.78 85.5684C577.86 80.6724 576.9 75.2004 576.9 69.1524C576.9 63.2004 577.86 57.7764 579.78 52.8804C582.468 46.0644 586.884 40.7364 593.028 36.8964C599.172 32.9604 606.276 30.9924 614.34 30.9924C622.5 30.9924 629.7 33.0564 635.94 37.1844C642.276 41.2164 646.548 46.3044 648.756 52.4484C649.428 54.1764 649.86 56.0004 650.052 57.9204V58.3524C650.052 59.3124 649.428 59.9364 648.18 60.2244L625.86 63.8244H625.428C624.18 63.8244 623.508 63.2004 623.412 61.9524L622.836 59.9364C622.356 58.3044 621.3 56.9604 619.668 55.9044C618.132 54.7524 616.308 54.1764 614.196 54.1764C610.356 54.1764 607.62 55.9044 605.988 59.3604C604.836 61.7604 604.26 65.0724 604.26 69.2964C604.26 73.2324 604.788 76.5444 605.844 79.2324C607.476 83.0724 610.26 84.9924 614.196 84.9924C618.42 84.9924 621.3 82.7844 622.836 78.3684L622.98 77.7924C623.268 76.1604 624.084 75.4884 625.428 75.7764L647.892 79.5204C649.14 79.8084 649.764 80.4804 649.764 81.5364C649.764 82.6884 649.428 84.2724 648.756 86.2884C646.26 93.2964 641.892 98.7204 635.652 102.56C629.508 106.304 622.404 108.176 614.34 108.176ZM659.676 107.024C659.004 107.024 658.476 106.832 658.092 106.448C657.708 106.064 657.516 105.536 657.516 104.864V8.38441C657.516 7.71241 657.708 7.18441 658.092 6.80041C658.476 6.41641 659.004 6.22441 659.676 6.22441H682.428C683.1 6.22441 683.628 6.41641 684.012 6.80041C684.396 7.18441 684.588 7.71241 684.588 8.38441V49.7124C684.588 50.0004 684.684 50.1924 684.876 50.2884C685.068 50.3844 685.26 50.2884 685.452 50.0004L697.692 33.4404C698.268 32.5764 699.132 32.1444 700.284 32.1444H726.204C726.78 32.1444 727.212 32.2884 727.5 32.5764C727.884 32.7684 728.076 33.0564 728.076 33.4404C728.076 33.8244 727.932 34.2564 727.644 34.7364L709.068 59.7924C708.876 60.0804 708.876 60.4164 709.068 60.8004L730.236 104.432L730.524 105.584C730.524 106.544 729.9 107.024 728.652 107.024H704.892C703.644 107.024 702.78 106.448 702.3 105.296L690.636 77.6484C690.54 77.4564 690.348 77.3604 690.06 77.3604C689.868 77.2644 689.724 77.3124 689.628 77.5044L684.876 85.5684C684.684 85.9524 684.588 86.2404 684.588 86.4324V104.864C684.588 105.536 684.396 106.064 684.012 106.448C683.628 106.832 683.1 107.024 682.428 107.024H659.676ZM739.551 107.024C738.879 107.024 738.351 106.832 737.967 106.448C737.583 106.064 737.391 105.536 737.391 104.864V8.38441C737.391 7.71241 737.583 7.18441 737.967 6.80041C738.351 6.41641 738.879 6.22441 739.551 6.22441H762.303C762.975 6.22441 763.503 6.41641 763.887 6.80041C764.271 7.18441 764.463 7.71241 764.463 8.38441V104.864C764.463 105.536 764.271 106.064 763.887 106.448C763.503 106.832 762.975 107.024 762.303 107.024H739.551ZM787.633 27.1044C783.697 27.1044 780.433 25.8564 777.841 23.3604C775.345 20.7684 774.097 17.5044 774.097 13.5684C774.097 9.53641 775.345 6.27241 777.841 3.77641C780.433 1.28041 783.697 0.0324097 787.633 0.0324097C791.569 0.0324097 794.785 1.28041 797.281 3.77641C799.873 6.27241 801.169 9.53641 801.169 13.5684C801.169 17.4084 799.873 20.6244 797.281 23.2164C794.785 25.8084 791.569 27.1044 787.633 27.1044ZM776.113 107.024C775.441 107.024 774.913 106.832 774.529 106.448C774.145 106.064 773.953 105.536 773.953 104.864V34.3044C773.953 33.6324 774.145 33.1044 774.529 32.7204C774.913 32.3364 775.441 32.1444 776.113 32.1444H798.865C799.537 32.1444 800.065 32.3364 800.449 32.7204C800.833 33.1044 801.025 33.6324 801.025 34.3044V104.864C801.025 105.536 800.833 106.064 800.449 106.448C800.065 106.832 799.537 107.024 798.865 107.024H776.113ZM855.444 30.9924C860.244 30.9924 864.564 32.0484 868.404 34.1604C872.244 36.2724 875.268 39.3924 877.476 43.5204C879.78 47.5524 880.932 52.3524 880.932 57.9204V104.864C880.932 105.536 880.74 106.064 880.356 106.448C879.972 106.832 879.444 107.024 878.772 107.024H856.02C855.348 107.024 854.82 106.832 854.436 106.448C854.052 106.064 853.86 105.536 853.86 104.864V63.8244C853.86 60.9444 853.092 58.6404 851.556 56.9124C850.116 55.0884 848.196 54.1764 845.796 54.1764C843.3 54.1764 841.284 55.0884 839.748 56.9124C838.308 58.6404 837.588 60.9444 837.588 63.8244V104.864C837.588 105.536 837.396 106.064 837.012 106.448C836.628 106.832 836.1 107.024 835.428 107.024H812.676C812.004 107.024 811.476 106.832 811.092 106.448C810.708 106.064 810.516 105.536 810.516 104.864V34.3044C810.516 33.6324 810.708 33.1044 811.092 32.7204C811.476 32.3364 812.004 32.1444 812.676 32.1444H835.428C836.1 32.1444 836.628 32.3364 837.012 32.7204C837.396 33.1044 837.588 33.6324 837.588 34.3044V39.4884C837.588 39.8724 837.684 40.1124 837.876 40.2084C838.068 40.3044 838.212 40.2084 838.308 39.9204C841.956 33.9684 847.668 30.9924 855.444 30.9924ZM935.329 34.3044C935.329 33.6324 935.521 33.1044 935.905 32.7204C936.289 32.3364 936.817 32.1444 937.489 32.1444H960.241C960.913 32.1444 961.441 32.3364 961.825 32.7204C962.209 33.1044 962.401 33.6324 962.401 34.3044V97.2324C962.401 110.96 958.417 120.704 950.449 126.464C942.577 132.32 932.641 135.248 920.641 135.248C915.265 135.248 910.225 134.816 905.521 133.952C904.273 133.664 903.649 132.848 903.649 131.504L904.513 112.064C904.513 110.432 905.377 109.856 907.105 110.336C911.137 111.392 914.929 111.92 918.481 111.92C923.089 111.92 926.881 110.96 929.857 109.04C932.833 107.12 934.609 104.192 935.185 100.256C935.281 99.8724 935.185 99.6324 934.897 99.5364C934.705 99.4404 934.465 99.5364 934.177 99.8244C930.913 102.896 926.209 104.432 920.065 104.432C904.705 104.432 894.913 98.1924 890.689 85.7124C889.057 80.9124 888.241 75.2964 888.241 68.8644C888.241 61.7604 889.249 55.7124 891.265 50.7204C893.569 44.6724 897.169 39.8724 902.065 36.3204C907.057 32.7684 912.769 30.9924 919.201 30.9924C925.825 30.9924 930.913 33.0084 934.465 37.0404C934.657 37.2324 934.849 37.3284 935.041 37.3284C935.233 37.2324 935.329 37.0404 935.329 36.7524V34.3044ZM933.889 78.6564C934.849 76.1604 935.329 72.8484 935.329 68.7204C935.329 64.8804 934.801 61.7604 933.745 59.3604C932.113 55.9044 929.377 54.1764 925.537 54.1764C922.177 54.1764 919.633 55.8564 917.905 59.2164C916.369 61.9044 915.601 65.2164 915.601 69.1524C915.601 72.9924 916.225 76.1124 917.473 78.5124C919.201 81.8724 921.985 83.5524 925.825 83.5524C929.665 83.5524 932.353 81.9204 933.889 78.6564ZM1020.91 51.5844C1020.91 52.2564 1020.72 52.7844 1020.34 53.1684C1019.95 53.5524 1019.43 53.7444 1018.75 53.7444H1006.8C1006.32 53.7444 1006.08 53.9844 1006.08 54.4644V77.0724C1006.08 81.8724 1007.81 84.2724 1011.27 84.2724H1016.59C1017.27 84.2724 1017.79 84.4644 1018.18 84.8484C1018.56 85.2324 1018.75 85.7604 1018.75 86.4324V104.864C1018.75 106.208 1018.03 106.976 1016.59 107.168C1012.85 107.456 1009.25 107.6 1005.79 107.6C997.057 107.6 990.625 106.256 986.497 103.568C982.369 100.88 980.257 95.7924 980.161 88.3044V54.4644C980.161 53.9844 979.921 53.7444 979.441 53.7444H971.665C970.993 53.7444 970.465 53.5524 970.081 53.1684C969.697 52.7844 969.505 52.2564 969.505 51.5844V34.3044C969.505 33.6324 969.697 33.1044 970.081 32.7204C970.465 32.3364 970.993 32.1444 971.665 32.1444H979.441C979.921 32.1444 980.161 31.9044 980.161 31.4244V14.1444C980.161 13.4724 980.353 12.9444 980.737 12.5604C981.121 12.1764 981.649 11.9844 982.321 11.9844H1003.92C1004.59 11.9844 1005.12 12.1764 1005.51 12.5604C1005.89 12.9444 1006.08 13.4724 1006.08 14.1444V31.4244C1006.08 31.9044 1006.32 32.1444 1006.8 32.1444H1018.75C1019.43 32.1444 1019.95 32.3364 1020.34 32.7204C1020.72 33.1044 1020.91 33.6324 1020.91 34.3044V51.5844ZM1063.35 108.176C1054.23 108.176 1046.5 105.728 1040.16 100.832C1033.92 95.9364 1029.79 89.3124 1027.78 80.9604C1026.82 77.5044 1026.34 73.6644 1026.34 69.4404C1026.34 64.7364 1026.91 60.4644 1028.07 56.6244C1030.37 48.6564 1034.59 42.4164 1040.74 37.9044C1046.98 33.2964 1054.56 30.9924 1063.49 30.9924C1072.42 30.9924 1079.91 33.2964 1085.95 37.9044C1092.1 42.4164 1096.32 48.5604 1098.63 56.3364C1099.78 60.3684 1100.35 64.6404 1100.35 69.1524C1100.35 72.8004 1099.97 76.4484 1099.2 80.0964C1097.19 88.7364 1093.01 95.6004 1086.67 100.688C1080.43 105.68 1072.66 108.176 1063.35 108.176ZM1063.35 84.9924C1065.84 84.9924 1067.86 84.1764 1069.39 82.5444C1070.93 80.8164 1071.99 78.5604 1072.56 75.7764C1072.95 73.9524 1073.14 71.7924 1073.14 69.2964C1073.14 67.0884 1072.9 64.8804 1072.42 62.6724C1070.98 57.0084 1067.95 54.1764 1063.35 54.1764C1058.55 54.1764 1055.52 57.0084 1054.27 62.6724C1053.79 64.3044 1053.55 66.5124 1053.55 69.2964C1053.55 71.7924 1053.75 73.9524 1054.13 75.7764C1055.57 81.9204 1058.64 84.9924 1063.35 84.9924ZM1153.15 30.9924C1157.95 30.9924 1162.27 32.0484 1166.11 34.1604C1169.95 36.2724 1172.97 39.3924 1175.18 43.5204C1177.48 47.5524 1178.63 52.3524 1178.63 57.9204V104.864C1178.63 105.536 1178.44 106.064 1178.06 106.448C1177.67 106.832 1177.15 107.024 1176.47 107.024H1153.72C1153.05 107.024 1152.52 106.832 1152.14 106.448C1151.75 106.064 1151.56 105.536 1151.56 104.864V63.8244C1151.56 60.9444 1150.79 58.6404 1149.26 56.9124C1147.82 55.0884 1145.9 54.1764 1143.5 54.1764C1141 54.1764 1138.99 55.0884 1137.45 56.9124C1136.01 58.6404 1135.29 60.9444 1135.29 63.8244V104.864C1135.29 105.536 1135.1 106.064 1134.71 106.448C1134.33 106.832 1133.8 107.024 1133.13 107.024H1110.38C1109.71 107.024 1109.18 106.832 1108.79 106.448C1108.41 106.064 1108.22 105.536 1108.22 104.864V34.3044C1108.22 33.6324 1108.41 33.1044 1108.79 32.7204C1109.18 32.3364 1109.71 32.1444 1110.38 32.1444H1133.13C1133.8 32.1444 1134.33 32.3364 1134.71 32.7204C1135.1 33.1044 1135.29 33.6324 1135.29 34.3044V39.4884C1135.29 39.8724 1135.39 40.1124 1135.58 40.2084C1135.77 40.3044 1135.91 40.2084 1136.01 39.9204C1139.66 33.9684 1145.37 30.9924 1153.15 30.9924Z" fill="#279FF7"/>
</svg>
