<svg width="581" height="114" viewBox="0 0 581 114" fill="none" xmlns="http://www.w3.org/2000/svg">
<rect width="24.495" height="30.6195" transform="matrix(-4.37114e-08 -1 -1 4.37114e-08 582 114)" fill="#1264CE"/>
<rect width="24.495" height="30.6195" transform="matrix(-4.37114e-08 -1 -1 4.37114e-08 582 89.5049)" fill="#279FF7"/>
<rect width="24.495" height="30.6195" transform="matrix(-4.37114e-08 -1 -1 4.37114e-08 582 65.0098)" fill="#56F13D"/>
<rect width="24.495" height="30.6195" transform="matrix(-4.37114e-08 -1 -1 4.37114e-08 582 40.5151)" fill="#B5FB12"/>
<rect width="24.495" height="30.6195" transform="matrix(-4.37114e-08 -1 -1 4.37114e-08 582 16.0205)" fill="#DBFF00"/>
<rect width="24.495" height="30.6195" transform="matrix(-4.37114e-08 -1 -1 4.37114e-08 551.38 89.5059)" fill="#1264CE"/>
<rect width="24.495" height="30.6195" transform="matrix(-4.37114e-08 -1 -1 4.37114e-08 551.38 65.0103)" fill="#279FF7"/>
<rect width="24.495" height="30.6195" transform="matrix(-4.37114e-08 -1 -1 4.37114e-08 551.38 40.5156)" fill="#56F13D"/>
<rect width="24.495" height="30.6195" transform="matrix(-4.37114e-08 -1 -1 4.37114e-08 551.38 16.021)" fill="#B5FB12"/>
<rect width="24.495" height="30.6195" transform="matrix(-4.37114e-08 -1 -1 4.37114e-08 520.761 114)" fill="#1264CE"/>
<rect width="24.495" height="30.6195" transform="matrix(-4.37114e-08 -1 -1 4.37114e-08 520.761 89.5049)" fill="#279FF7"/>
<rect width="24.495" height="30.6195" transform="matrix(-4.37114e-08 -1 -1 4.37114e-08 520.761 65.0103)" fill="#56F13D"/>
<rect width="24.495" height="30.6195" transform="matrix(-4.37114e-08 -1 -1 4.37114e-08 520.761 40.5156)" fill="#B5FB12"/>
<rect width="24.495" height="30.6195" transform="matrix(-4.37114e-08 -1 -1 4.37114e-08 520.761 16.0205)" fill="#DBFF00"/>
<rect width="24.495" height="30.6195" transform="matrix(-4.37114e-08 -1 -1 4.37114e-08 490.141 89.5059)" fill="#1264CE"/>
<rect width="24.495" height="30.6195" transform="matrix(-4.37114e-08 -1 -1 4.37114e-08 490.141 65.0107)" fill="#279FF7"/>
<rect width="24.495" height="30.6195" transform="matrix(-4.37114e-08 -1 -1 4.37114e-08 490.142 40.5156)" fill="#56F13D"/>
<rect width="24.495" height="30.6195" transform="matrix(-4.37114e-08 -1 -1 4.37114e-08 490.142 16.0205)" fill="#B5FB12"/>
<rect width="24.495" height="30.6195" transform="matrix(-4.37114e-08 -1 -1 4.37114e-08 459.523 65.0103)" fill="#1264CE"/>
<rect width="24.495" height="30.6195" transform="matrix(-4.37114e-08 -1 -1 4.37114e-08 459.523 40.5151)" fill="#279FF7"/>
<rect width="24.495" height="30.6195" transform="matrix(-4.37114e-08 -1 -1 4.37114e-08 459.522 16.0205)" fill="#56F13D"/>
<rect width="24.495" height="30.6195" transform="matrix(-4.37114e-08 -1 -1 4.37114e-08 428.902 89.5059)" fill="#1264CE"/>
<rect width="24.495" height="30.6195" transform="matrix(-4.37114e-08 -1 -1 4.37114e-08 428.902 65.0103)" fill="#279FF7"/>
<rect width="24.495" height="30.6195" transform="matrix(-4.37114e-08 -1 -1 4.37114e-08 428.902 40.5156)" fill="#56F13D"/>
<rect width="24.495" height="30.6195" transform="matrix(-4.37114e-08 -1 -1 4.37114e-08 428.902 16.0205)" fill="#B5FB12"/>
<rect width="24.495" height="30.6195" transform="matrix(-4.37114e-08 -1 -1 4.37114e-08 398.283 114)" fill="#1264CE"/>
<rect width="24.495" height="30.6195" transform="matrix(-4.37114e-08 -1 -1 4.37114e-08 398.283 89.5054)" fill="#279FF7"/>
<rect width="24.495" height="30.6195" transform="matrix(-4.37114e-08 -1 -1 4.37114e-08 398.283 65.0103)" fill="#56F13D"/>
<rect width="24.495" height="30.6195" transform="matrix(-4.37114e-08 -1 -1 4.37114e-08 398.283 40.5151)" fill="#B5FB12"/>
<rect width="24.495" height="30.6195" transform="matrix(-4.37114e-08 -1 -1 4.37114e-08 398.283 16.0205)" fill="#DBFF00"/>
<rect width="24.495" height="30.6195" transform="matrix(-4.37114e-08 -1 -1 4.37114e-08 367.664 89.5054)" fill="#1264CE"/>
<rect width="24.495" height="30.6195" transform="matrix(-4.37114e-08 -1 -1 4.37114e-08 367.664 65.0103)" fill="#279FF7"/>
<rect width="24.495" height="30.6195" transform="matrix(-4.37114e-08 -1 -1 4.37114e-08 367.664 40.5161)" fill="#56F13D"/>
<rect width="24.495" height="30.6195" transform="matrix(-4.37114e-08 -1 -1 4.37114e-08 367.664 16.021)" fill="#B5FB12"/>
<rect width="24.495" height="30.6195" transform="matrix(-4.37114e-08 -1 -1 4.37114e-08 337.044 65.0103)" fill="#1264CE"/>
<rect width="24.495" height="30.6195" transform="matrix(-4.37114e-08 -1 -1 4.37114e-08 337.044 40.5151)" fill="#279FF7"/>
<rect width="24.495" height="30.6195" transform="matrix(-4.37114e-08 -1 -1 4.37114e-08 337.044 16.0205)" fill="#56F13D"/>
<rect width="24.495" height="30.6195" transform="matrix(-4.37114e-08 -1 -1 4.37114e-08 306.425 40.5151)" fill="#1264CE"/>
<rect width="24.495" height="30.6195" transform="matrix(-4.37114e-08 -1 -1 4.37114e-08 306.425 16.021)" fill="#279FF7"/>
<rect width="24.495" height="30.6195" transform="matrix(-4.37114e-08 -1 -1 4.37114e-08 275.805 65.0103)" fill="#1264CE"/>
<rect width="24.495" height="30.6195" transform="matrix(-4.37114e-08 -1 -1 4.37114e-08 275.805 40.5151)" fill="#279FF7"/>
<rect width="24.495" height="30.6195" transform="matrix(-4.37114e-08 -1 -1 4.37114e-08 275.805 16.0205)" fill="#56F13D"/>
<rect width="24.495" height="30.6195" transform="matrix(-4.37114e-08 -1 -1 4.37114e-08 245.185 114)" fill="#1264CE"/>
<rect width="24.495" height="30.6195" transform="matrix(-4.37114e-08 -1 -1 4.37114e-08 245.185 89.5049)" fill="#279FF7"/>
<rect width="24.495" height="30.6195" transform="matrix(-4.37114e-08 -1 -1 4.37114e-08 245.185 65.0103)" fill="#56F13D"/>
<rect width="24.495" height="30.6195" transform="matrix(-4.37114e-08 -1 -1 4.37114e-08 245.185 40.5146)" fill="#B5FB12"/>
<rect width="24.495" height="30.6195" transform="matrix(-4.37114e-08 -1 -1 4.37114e-08 245.185 16.0205)" fill="#DBFF00"/>
<rect width="24.495" height="30.6195" transform="matrix(-4.37114e-08 -1 -1 4.37114e-08 214.565 89.5044)" fill="#1264CE"/>
<rect width="24.495" height="30.6195" transform="matrix(-4.37114e-08 -1 -1 4.37114e-08 214.565 65.0103)" fill="#279FF7"/>
<rect width="24.495" height="30.6195" transform="matrix(-4.37114e-08 -1 -1 4.37114e-08 214.565 40.5151)" fill="#56F13D"/>
<rect width="24.495" height="30.6195" transform="matrix(-4.37114e-08 -1 -1 4.37114e-08 214.565 16.0205)" fill="#B5FB12"/>
<rect width="24.495" height="30.6195" transform="matrix(-4.37114e-08 -1 -1 4.37114e-08 183.946 65.0103)" fill="#1264CE"/>
<rect width="24.495" height="30.6195" transform="matrix(-4.37114e-08 -1 -1 4.37114e-08 183.946 40.5151)" fill="#279FF7"/>
<rect width="24.495" height="30.6195" transform="matrix(-4.37114e-08 -1 -1 4.37114e-08 183.946 16.021)" fill="#56F13D"/>
<rect width="24.495" height="30.6195" transform="matrix(-4.37114e-08 -1 -1 4.37114e-08 153.326 89.5044)" fill="#1264CE"/>
<rect width="24.495" height="30.6195" transform="matrix(-4.37114e-08 -1 -1 4.37114e-08 153.326 65.0098)" fill="#279FF7"/>
<rect width="24.495" height="30.6195" transform="matrix(-4.37114e-08 -1 -1 4.37114e-08 153.326 40.5151)" fill="#56F13D"/>
<rect width="24.495" height="30.6195" transform="matrix(-4.37114e-08 -1 -1 4.37114e-08 153.326 16.0205)" fill="#B5FB12"/>
<rect width="24.495" height="30.6195" transform="matrix(-4.37114e-08 -1 -1 4.37114e-08 122.477 40.4644)" fill="#1264CE"/>
<rect width="24.495" height="30.6195" transform="matrix(-4.37114e-08 -1 -1 4.37114e-08 122.477 15.9697)" fill="#279FF7"/>
<rect width="24.495" height="30.6195" transform="matrix(-4.37114e-08 -1 -1 4.37114e-08 91.8582 15.9692)" fill="#1264CE"/>
<rect width="24.495" height="30.6195" transform="matrix(-4.37114e-08 -1 -1 4.37114e-08 30.6194 15.9697)" fill="#1264CE"/>
</svg>
